<?xml version="1.0" encoding="utf-8"?>
<!-- Generator: Adobe Illustrator 19.1.0, SVG Export Plug-In . SVG Version: 6.00 Build 0)  -->
<svg version="1.1" xmlns="http://www.w3.org/2000/svg" xmlns:xlink="http://www.w3.org/1999/xlink" x="0px" y="0px"
	 viewBox="0 0 282.1 327.3" enable-background="new 0 0 282.1 327.3" xml:space="preserve">
<g id="Layer_1">
	<rect x="-223.9" y="-175.6" display="none" stroke="#F1F2F2" stroke-width="3" stroke-miterlimit="10" width="640" height="640"/>
	<path id="moon_2_" display="none" fill="#F1F2F2" d="M188.3-37.3C219.2-7.8,239.6,33,242.6,79.1C249,176.6,182,260.9,84.5,267.3
		c-41,2.7-79.7-8.8-111.2-30.3c34.6,33,82.4,52,133.9,48.7c106.8-7,164.4-93.8,158.1-188.3C261.6,40.9,231.7-7.7,188.3-37.3z"/>
	<path fill="#F1F2F2" d="M139.8,85.2v76.7c0,2.9,0.1,5.7,0.4,8.5c0.1,0.9,0.2,1.7,0.3,2.6c0,0,0,0,0,0c-0.7-1-1.6-2.2-2.9-3.8
		c-1.2-1.5-2.9-3.2-5-4.9L33.3,81.3v122.2h19.1v-82.8c0-1.4-0.4-3.4-1.2-6l3.5,4.4l4.6,4.8l99.6,83.5V85.2H139.8z"/>
	<path id="moon2" display="none" fill="#F1F2F2" d="M183.7-21.1c32.6,31.7,52.8,76.1,52.8,125.2c0,96.5-78.2,174.7-174.7,174.7
		c-34.4,0-66.4-9.9-93.5-27.1c31.5,30.7,74.5,49.6,121.9,49.6c96.5,0,174.7-78.2,174.7-174.7C264.9,64.4,232.5,9.9,183.7-21.1z"/>
	<path fill="#F1F2F2" d="M191.3,0c40.5,31.9,66.4,81.4,66.4,136.9c0,96.3-78,174.3-174.3,174.3c-30.2,0-58.6-7.7-83.4-21.2
		c29.7,23.4,67.1,37.4,107.8,37.4c96.3,0,174.3-78,174.3-174.3C282.1,87,245.4,29.6,191.3,0z"/>
</g>
<g id="Layer_2">
</g>
</svg>
