<?xml version="1.0" encoding="utf-8"?>
<!-- Generator: Adobe Illustrator 19.1.0, SVG Export Plug-In . SVG Version: 6.00 Build 0)  -->
<svg version="1.1" id="Layer_1" xmlns="http://www.w3.org/2000/svg" xmlns:xlink="http://www.w3.org/1999/xlink" x="0px" y="0px"
	 viewBox="-27 254.4 584.7 132.6" style="enable-background:new -27 254.4 584.7 132.6;" xml:space="preserve">
<style type="text/css">
	.st0{display:none;}
	.st1{display:inline;stroke:#6D6E71;stroke-width:3;stroke-miterlimit:10;}
	.st2{fill:url(#SVGID_1_);}
	.st3{fill:url(#SVGID_2_);}
	.st4{fill:url(#SVGID_3_);}
	.st5{fill:url(#SVGID_4_);}
	.st6{fill:url(#SVGID_5_);}
	.st7{fill:url(#SVGID_6_);}
	.st8{fill:url(#SVGID_7_);}
	.st9{fill:url(#SVGID_8_);}
	.st10{fill:#F1F2F2;}
	.st11{fill:#BCBEC0;}
	.st12{font-family:'Limerick-Regular';}
	.st13{font-size:20.1975px;}
</style>
<g id="BG" class="st0">
	<rect x="-88" y="413.4" class="st1" width="640" height="320"/>
</g>
<g id="Layer_1_1_">
	<g>
		
			<linearGradient id="SVGID_1_" gradientUnits="userSpaceOnUse" x1="38.2655" y1="284.0825" x2="38.2655" y2="374.4825" gradientTransform="matrix(1 0 0 -1 0 642.8)">
			<stop  offset="0" style="stop-color:#ADADAD"/>
			<stop  offset="1" style="stop-color:#FFFFFF"/>
		</linearGradient>
		<path class="st2" d="M64.2,325.3c0,1.5,0,3,0.1,4.5c-0.8-1-1.9-2-3.1-3.3l-62.3-58.2v85.6h13.5v-56.6c0-0.1,0-0.2,0-0.3l2.7,3.1
			l62.5,58.6v-85.6H64.2V325.3z"/>
		
			<linearGradient id="SVGID_2_" gradientUnits="userSpaceOnUse" x1="102.4155" y1="288.9825" x2="102.4155" y2="369.6825" gradientTransform="matrix(1 0 0 -1 0 642.8)">
			<stop  offset="0" style="stop-color:#ADADAD"/>
			<stop  offset="1" style="stop-color:#FFFFFF"/>
		</linearGradient>
		<rect x="95.7" y="273.1" class="st3" width="13.4" height="80.7"/>
		
			<linearGradient id="SVGID_3_" gradientUnits="userSpaceOnUse" x1="145.9155" y1="288.9825" x2="145.9155" y2="369.6825" gradientTransform="matrix(1 0 0 -1 0 642.8)">
			<stop  offset="0" style="stop-color:#ADADAD"/>
			<stop  offset="1" style="stop-color:#FFFFFF"/>
		</linearGradient>
		<polygon class="st4" points="119.6,273.1 119.6,274.6 119.6,284.7 139,284.7 139,353.8 152.4,353.8 152.4,284.7 172.2,284.7 
			172.2,273.1 121,273.1 		"/>
		
			<linearGradient id="SVGID_4_" gradientUnits="userSpaceOnUse" x1="205.0655" y1="288.9825" x2="205.0655" y2="369.6825" gradientTransform="matrix(1 0 0 -1 0 642.8)">
			<stop  offset="0" style="stop-color:#ADADAD"/>
			<stop  offset="1" style="stop-color:#FFFFFF"/>
		</linearGradient>
		<polygon class="st5" points="182.3,353.8 227.8,353.8 227.8,342.2 195.8,342.2 195.8,317.6 227.4,317.6 227.4,305.9 195.8,305.9 
			195.8,284.7 227.8,284.7 227.8,273.1 182.3,273.1 		"/>
		
			<linearGradient id="SVGID_5_" gradientUnits="userSpaceOnUse" x1="264.5655" y1="287.0829" x2="264.5655" y2="371.7826" gradientTransform="matrix(1 0 0 -1 0 642.8)">
			<stop  offset="0" style="stop-color:#525252"/>
			<stop  offset="1" style="stop-color:#C7C7C7"/>
		</linearGradient>
		<path class="st6" d="M284.1,312.6c-4.9-2.5-7.9-3.9-9.3-4.4l-0.7-0.3c-1.3-0.5-3-1.2-5.2-1.9c-2.5-0.9-4.3-1.6-5.5-2.1h-0.1
			c-1.2-0.6-2.1-1-2.9-1.6c-0.9-0.6-1.5-1-2-1.5c-0.4-0.4-0.8-0.8-1-1.2l-0.1-0.2c-1.3-1.7-2-3.6-2-5.9c0-3.1,1.1-5.6,3.3-7.7
			c2.2-2,5.1-3,8.7-3c5.2,0,9.4,2.2,13,6.8l1.1,1.4l8.5-9.4l-0.8-1c-1.7-2-4.1-4-7.4-6.3c-3.4-2.3-8.2-3.5-14.4-3.5
			c-7.4,0-13.6,2.2-18.5,6.6c-5,4.3-7.5,9.9-7.5,16.4c0,7.4,2.1,12.3,6.2,15c4.1,2.9,6.8,4.4,8.1,5.1c1.8,0.9,3.6,1.7,5.6,2.5
			l2.4,0.9c1.1,0.4,2.2,0.8,3.1,1.2c1.4,0.6,2.9,1.2,4.1,1.7c0.8,0.4,1.4,0.8,2,1.1c0.3,0.2,0.5,0.3,0.7,0.4
			c0.5,0.3,1.6,1.3,2.9,2.7c1.2,1.2,1.8,3.2,1.8,6.1c0,3.7-1.3,6.6-3.9,9.1c-2.7,2.4-6.1,3.6-10.3,3.6c-6.9,0-12.4-3.1-16.8-9.5
			l-1-1.5l-9.4,9.3l0.8,1c0.9,1.2,1.8,2.3,2.5,3.1c0.7,0.8,2.2,2.2,5.8,5.3c3.4,2.9,9.2,4.4,17.9,4.4c8.4,0,15.3-2.4,20.5-7.1
			c5.3-4.8,8-10.9,8-18.2C292.2,321.3,289.5,315.3,284.1,312.6z"/>
		
			<linearGradient id="SVGID_6_" gradientUnits="userSpaceOnUse" x1="332.067" y1="288.9824" x2="332.067" y2="369.6824" gradientTransform="matrix(1 0 0 -1 0 642.8)">
			<stop  offset="0" style="stop-color:#525252"/>
			<stop  offset="1" style="stop-color:#C7C7C7"/>
		</linearGradient>
		<path class="st7" d="M350.6,279.4c-4.8-4.2-11.1-6.3-18.8-6.3h-25.3v80.7h13.4v-33.5h9.8c3.8,0,6.2-0.2,8.1-0.5
			c2-0.3,4-0.8,6.3-1.7h0.1c4.2-1.9,7.4-4.7,9.8-8.6c2.4-3.8,3.6-8.2,3.6-13.1C357.7,289.3,355.3,283.6,350.6,279.4z M343.7,296.4
			c0,4.4-1.3,7.5-4,9.6c-2.7,2.3-6.6,3.4-11.9,3.4h-8v-25.3h9.8c4.3,0,7.8,1.1,10.4,3.3C342.5,289.5,343.7,292.5,343.7,296.4z"/>
		
			<linearGradient id="SVGID_7_" gradientUnits="userSpaceOnUse" x1="411.7155" y1="287.0825" x2="411.7155" y2="371.4825" gradientTransform="matrix(1 0 0 -1 0 642.8)">
			<stop  offset="0" style="stop-color:#525252"/>
			<stop  offset="1" style="stop-color:#C7C7C7"/>
		</linearGradient>
		<path class="st8" d="M443.8,283.5c-8.6-8.1-19.4-12.2-32.1-12.2s-23.5,4.1-32.1,12.1c-8.7,8.1-13.1,18.2-13.1,30.1
			c0,11.8,4.4,21.9,13.1,30c8.6,8.1,19.4,12.2,32.1,12.2c12.6,0,23.4-4.1,32.1-12.2s13.1-18.2,13.1-30S452.5,291.6,443.8,283.5z
			 M443.2,313.5c0,8.3-3.1,15.4-9.1,21.2c-6.1,5.8-13.6,8.8-22.4,8.8c-8.9,0-16.4-3-22.6-8.8c-6.1-5.9-9.1-12.8-9.1-21.2
			c0-8.5,3-15.4,9.1-21.2c6.2-5.9,13.6-8.7,22.6-8.7c8.7,0,16.2,3,22.4,8.8C440.1,298.2,443.2,305.3,443.2,313.5z"/>
		
			<linearGradient id="SVGID_8_" gradientUnits="userSpaceOnUse" x1="490.2155" y1="288.9825" x2="490.2155" y2="369.6825" gradientTransform="matrix(1 0 0 -1 0 642.8)">
			<stop  offset="0" style="stop-color:#525252"/>
			<stop  offset="1" style="stop-color:#C7C7C7"/>
		</linearGradient>
		<polyline class="st9" points="463.9,273.1 463.9,274.6 463.9,284.7 483.3,284.7 483.3,353.8 496.7,353.8 496.7,284.7 516.5,284.7 
			516.5,273.1 465.3,273.1 		"/>
	</g>
	<path id="moon_2_" class="st10" d="M526.8,256.1c12.4,11.8,20.5,28.1,21.7,46.5c2.6,39-24.2,72.7-63.2,75.2
		c-16.4,1.1-31.9-3.5-44.5-12.1c13.8,13.2,32.9,20.8,53.5,19.4c42.7-2.8,65.7-37.5,63.2-75.2C556.1,287.4,544.1,267.9,526.8,256.1z"
		/>
	<text transform="matrix(0 -1.0968 1 0 -10.1555 304.7056)" class="st11 st12 st13">THE</text>
</g>
</svg>
